<?xml version="1.0" encoding="utf-8"?>
<!-- Generator: Adobe Illustrator 22.0.1, SVG Export Plug-In . SVG Version: 6.00 Build 0)  -->
<svg version="1.1" id="Layer_1" xmlns="http://www.w3.org/2000/svg" xmlns:xlink="http://www.w3.org/1999/xlink" x="0px" y="0px"
	 viewBox="0 0 106.6 52.8" style="enable-background:new 0 0 106.6 52.8;" xml:space="preserve">
<style type="text/css">
	.st0{fill:#FFFFFF;fill-opacity:0;}
	.st1{fill:#EE3134;}
	.st2{fill:#58595B;}
</style>
<g>
	<rect x="-16.9" y="-17.1" class="st0" width="140.5" height="87.7"/>
	<rect x="-16.9" y="-17.1" class="st0" width="140.5" height="87.7"/>
	<rect x="-16.9" y="-17.1" class="st0" width="140.5" height="87.7"/>
	<path class="st1" d="M1,8.7h2.8V5.5l3.7-2v5.1h3.3v2.7H7.5v9c0,0.4,0,0.7,0,1c0,0.3,0.1,0.5,0.2,0.7s0.3,0.4,0.6,0.5
		c0.2,0.1,0.6,0.2,1,0.2c0.3,0,0.5,0,0.8,0c0.3,0,0.5,0,0.8-0.1v2.8c-0.4,0-0.8,0.1-1.2,0.1c-0.4,0-0.8,0.1-1.2,0.1
		c-1,0-1.8-0.1-2.4-0.3s-1.1-0.5-1.4-0.8c-0.3-0.4-0.6-0.8-0.7-1.4c-0.1-0.6-0.2-1.2-0.2-1.9v-10H1C1,11.4,1,8.7,1,8.7z"/>
	<path class="st1" d="M12,2.2l3.7-1.7v10.3h0.1c0.5-0.8,1.2-1.4,2.1-2c0.9-0.5,2-0.8,3-0.8c1.9,0,3.3,0.5,4.4,1.5
		c1.1,1,1.6,2.5,1.6,4.3v11.7h-3.7V14.9c0-1.4-0.3-2.3-0.9-2.9c-0.5-0.6-1.4-0.9-2.5-0.9c-0.6,0-1.2,0.1-1.7,0.4
		c-0.5,0.2-0.9,0.6-1.3,1s-0.6,0.9-0.8,1.5c-0.2,0.6-0.3,1.1-0.3,1.8v10h-3.7L12,2.2L12,2.2z"/>
	<path class="st1" d="M40.7,15.6c0-0.6-0.2-1.2-0.4-1.7c-0.2-0.6-0.5-1-0.9-1.5c-0.4-0.4-0.8-0.7-1.3-1c-0.5-0.3-1.1-0.4-1.8-0.4
		s-1.3,0.1-1.8,0.4c-0.5,0.2-1,0.6-1.4,1s-0.7,0.9-0.9,1.5c-0.2,0.6-0.4,1.2-0.4,1.8L40.7,15.6L40.7,15.6z M32,18.1
		c0,0.7,0.1,1.3,0.3,1.9c0.2,0.6,0.5,1.2,0.9,1.6c0.4,0.5,0.9,0.8,1.4,1.1c0.6,0.3,1.3,0.4,2.1,0.4c1.1,0,2-0.2,2.6-0.7
		s1.2-1.2,1.5-2.2h3.5c-0.2,0.9-0.5,1.8-1,2.5c-0.5,0.7-1.1,1.4-1.8,1.9c-0.7,0.5-1.5,0.9-2.3,1.1c-0.9,0.3-1.8,0.4-2.6,0.4
		c-1.4,0-2.5-0.2-3.5-0.7c-1-0.4-1.9-1.1-2.6-1.9c-0.7-0.8-1.3-1.8-1.6-2.8c-0.4-1.1-0.6-2.3-0.6-3.6c0-1.2,0.2-2.4,0.6-3.4
		c0.4-1.1,0.9-2.1,1.7-2.8c0.7-0.8,1.6-1.5,2.5-2c1-0.5,2.2-0.7,3.4-0.7c1.4,0,2.5,0.3,3.6,0.9c1.1,0.6,2,1.3,2.6,2.3
		c0.7,0.9,1.2,2,1.6,3.1c0.3,1.2,0.4,2.5,0.3,3.7L32,18.1L32,18.1z"/>
	<path class="st1" d="M45.8,8.7h3.5v3.2h0.1c0.1-0.5,0.3-0.9,0.7-1.4c0.3-0.4,0.7-0.9,1.2-1.2c0.5-0.4,1-0.7,1.5-0.9
		c0.5-0.2,1.1-0.3,1.7-0.3c0.4,0,0.8,0,0.9,0c0.2,0,0.3,0,0.5,0.1v3.6c-0.3,0-0.5-0.1-0.8-0.1c-0.3,0-0.6,0-0.8,0
		c-0.6,0-1.3,0.1-1.8,0.4c-0.6,0.3-1.1,0.6-1.5,1.1s-0.8,1.1-1,1.9c-0.2,0.7-0.4,1.6-0.4,2.5v8h-3.8V8.7z"/>
	<path class="st1" d="M57.1,8.7h3.5V11h0.1c0.3-0.4,0.6-0.8,0.9-1.2c0.3-0.4,0.7-0.7,1.1-0.9c0.4-0.2,0.9-0.4,1.4-0.6
		c0.5-0.1,1.1-0.2,1.8-0.2c1,0,2,0.2,2.8,0.7c0.9,0.5,1.5,1.2,1.9,2.2c0.6-0.9,1.4-1.6,2.2-2.1c0.8-0.5,1.9-0.8,3.1-0.8
		c1.8,0,3.1,0.4,4.2,1.3c1,0.9,1.5,2.4,1.5,4.4v11.7h-3.7v-9.9c0-0.7,0-1.3-0.1-1.9c0-0.6-0.2-1.1-0.4-1.5c-0.2-0.4-0.5-0.7-1-1
		c-0.4-0.2-1-0.3-1.7-0.3c-1.3,0-2.2,0.4-2.7,1.2c-0.6,0.8-0.9,1.9-0.9,3.3v9.9h-3.7V14.5c0-1.2-0.2-2.1-0.7-2.6
		c-0.4-0.6-1.2-0.9-2.4-0.9c-0.5,0-1,0.1-1.4,0.3c-0.5,0.2-0.9,0.5-1.2,0.9s-0.6,0.8-0.8,1.4c-0.2,0.6-0.3,1.2-0.3,1.9v10.1h-3.7
		V8.7H57.1z"/>
	<path class="st1" d="M91.7,23.1c0.8,0,1.6-0.2,2.2-0.5c0.6-0.4,1.1-0.8,1.5-1.4c0.4-0.6,0.7-1.2,0.9-2c0.2-0.7,0.3-1.5,0.3-2.2
		s-0.1-1.5-0.3-2.2c-0.2-0.7-0.5-1.4-0.9-2c-0.4-0.6-0.9-1-1.5-1.4s-1.4-0.5-2.2-0.5s-1.6,0.2-2.2,0.5C89,12,88.5,12.4,88.1,13
		c-0.4,0.6-0.7,1.2-0.9,2c-0.2,0.7-0.3,1.5-0.3,2.2c0,0.8,0.1,1.5,0.3,2.2c0.2,0.7,0.5,1.4,0.9,2c0.4,0.6,0.9,1,1.5,1.4
		C90.2,22.9,91,23.1,91.7,23.1 M91.7,26c-1.4,0-2.5-0.2-3.6-0.7c-1.1-0.5-2-1.1-2.6-1.9c-0.7-0.8-1.3-1.8-1.7-2.8
		c-0.4-1.1-0.6-2.3-0.6-3.6c0-1.3,0.2-2.5,0.6-3.5c0.4-1.1,1-2.1,1.7-2.8c0.7-0.8,1.7-1.4,2.6-1.9c1.1-0.5,2.3-0.7,3.6-0.7
		s2.5,0.2,3.6,0.7c1.1,0.5,2,1.1,2.6,1.9c0.7,0.8,1.3,1.8,1.7,2.8c0.4,1.1,0.6,2.3,0.6,3.5s-0.2,2.5-0.6,3.6c-0.4,1.1-1,2.1-1.7,2.8
		c-0.7,0.8-1.7,1.4-2.6,1.9C94.3,25.8,93.1,26,91.7,26"/>
	<path class="st2" d="M11.6,38.6c-0.2-0.5-0.6-0.9-1-1.2c-0.4-0.3-0.9-0.5-1.4-0.7c-0.5-0.1-1.1-0.2-1.7-0.2c-0.5,0-0.9,0-1.4,0.1
		S5.3,36.9,5,37.1c-0.4,0.2-0.7,0.5-1,0.9c-0.2,0.4-0.4,0.8-0.4,1.4c0,0.5,0.1,0.9,0.3,1.2c0.2,0.3,0.5,0.6,0.9,0.8
		c0.4,0.2,0.7,0.4,1.2,0.5c0.4,0.1,0.8,0.3,1.2,0.3l2.7,0.6c0.6,0.1,1.2,0.2,1.8,0.5c0.6,0.2,1.1,0.5,1.6,0.9
		c0.5,0.4,0.8,0.8,1.1,1.4c0.3,0.6,0.4,1.2,0.4,2c0,0.9-0.2,1.7-0.6,2.4s-1,1.2-1.6,1.6c-0.7,0.4-1.4,0.7-2.2,0.9
		c-0.8,0.2-1.6,0.3-2.4,0.3c-2,0-3.6-0.5-4.8-1.4s-2-2.5-2.1-4.5h2.1c0.1,1.4,0.6,2.5,1.5,3.1s2.1,1.1,3.4,1.1c0.5,0,1-0.1,1.6-0.2
		c0.5-0.1,1-0.3,1.5-0.6s0.8-0.6,1.1-1c0.3-0.4,0.4-0.9,0.4-1.5c0-0.5-0.1-0.9-0.3-1.3c-0.2-0.3-0.5-0.6-0.8-0.9
		c-0.4-0.2-0.8-0.4-1.2-0.6c-0.5-0.2-0.9-0.3-1.4-0.4l-2.6-0.6c-0.7-0.2-1.3-0.4-1.9-0.6c-0.6-0.2-1.1-0.5-1.5-0.9
		c-0.4-0.3-0.8-0.8-1-1.3S1.6,40,1.6,39.3c0-0.9,0.2-1.6,0.6-2.2c0.4-0.6,0.9-1.1,1.5-1.5S5,35,5.7,34.9c0.8-0.2,1.5-0.3,2.3-0.3
		c0.9,0,1.7,0.1,2.4,0.3c0.7,0.2,1.4,0.6,2,1c0.6,0.5,1,1,1.3,1.7c0.3,0.7,0.5,1.5,0.6,2.4h-2.1C12,39.6,11.8,39.1,11.6,38.6"/>
	<path class="st2" d="M26.3,37.6c-0.8-0.7-1.9-1.1-3.2-1.1c-1,0-1.9,0.2-2.5,0.6c-0.8,0.4-1.4,1-1.9,1.7c-0.5,0.7-0.9,1.5-1.1,2.3
		c-0.3,0.9-0.4,1.8-0.4,2.6s0.1,1.8,0.4,2.6c0.3,0.9,0.6,1.7,1.1,2.3c0.5,0.7,1.1,1.2,1.9,1.7c0.8,0.4,1.6,0.6,2.5,0.6
		c0.6,0,1.3-0.1,1.8-0.4c0.6-0.2,1.1-0.6,1.5-1s0.8-0.9,1.1-1.5c0.3-0.6,0.5-1.3,0.5-2H30c-0.3,2.1-1.1,3.6-2.3,4.8
		C26.5,52,25,52.5,23,52.5c-1.3,0-2.5-0.2-3.4-0.7c-1-0.5-1.9-1.1-2.5-1.9c-0.7-0.8-1.2-1.8-1.6-2.8s-0.5-2.3-0.5-3.4
		s0.2-2.4,0.5-3.4c0.4-1.1,0.9-2.1,1.6-2.8c0.7-0.8,1.5-1.5,2.5-2c1-0.5,2.2-0.7,3.4-0.7c1.8,0,3.3,0.5,4.6,1.5s2,2.5,2.3,4.3h-2.1
		C27.6,39.3,27.1,38.4,26.3,37.6"/>
	<rect x="31.3" y="35.3" class="st2" width="2.1" height="16.9"/>
	<path class="st2" d="M47.4,40.3c-0.3-0.7-0.6-1.4-1.1-1.9c-0.5-0.6-1-1-1.7-1.4c-0.7-0.3-1.4-0.5-2.3-0.5c-0.9,0-1.6,0.2-2.3,0.5
		s-1.2,0.8-1.7,1.4c-0.5,0.6-0.8,1.2-1.1,2c-0.3,0.7-0.5,1.5-0.5,2.3h10.9C47.8,41.8,47.6,41,47.4,40.3 M37.2,46.6
		c0.2,0.8,0.5,1.5,1,2.2c0.5,0.6,1.1,1.2,1.8,1.6c0.7,0.4,1.6,0.6,2.5,0.6c1.5,0,2.6-0.4,3.5-1.2c0.9-0.8,1.5-1.9,1.8-3.1h2.1
		c-0.4,2-1.3,3.4-2.4,4.4c-1.2,1.1-2.8,1.6-4.9,1.6c-1.4,0-2.5-0.2-3.4-0.7c-1-0.5-1.8-1.1-2.4-2c-0.6-0.8-1.1-1.8-1.4-2.8
		c-0.3-1.1-0.4-2.3-0.4-3.4c0-1.1,0.1-2.2,0.4-3.2c0.3-1.1,0.8-2.1,1.4-2.8c0.6-0.8,1.4-1.5,2.4-2.1c1-0.5,2.2-0.8,3.4-0.8
		c1.4,0,2.5,0.3,3.4,0.8c1,0.6,1.8,1.3,2.4,2.2c0.6,0.9,1,1.9,1.3,3c0.3,1.2,0.4,2.3,0.3,3.4h-13C36.9,45,37,45.8,37.2,46.6"/>
	<path class="st2" d="M53,35.3v2.9h0.1c0.4-1,1.1-1.9,2.1-2.5c1-0.6,2.1-0.9,3.3-0.9c1.2,0,2.2,0.2,2.9,0.5c0.8,0.3,1.5,0.7,1.9,1.3
		c0.5,0.6,0.8,1.3,1,2.1s0.3,1.7,0.3,2.7v10.8h-2.1V41.8c0-0.7-0.1-1.4-0.2-2c-0.1-0.6-0.4-1.2-0.7-1.6c-0.3-0.5-0.8-0.8-1.3-1.1
		c-0.6-0.3-1.3-0.4-2.1-0.4c-0.8,0-1.6,0.1-2.2,0.4c-0.7,0.3-1.2,0.7-1.7,1.2c-0.5,0.5-0.8,1.1-1.1,1.9c-0.3,0.7-0.4,1.5-0.4,2.3
		v9.8h-2.1V35.4L53,35.3L53,35.3z"/>
	<path class="st2" d="M73.6,35.3v1.8h-3.4v11.4c0,0.7,0.1,1.2,0.3,1.6c0.2,0.4,0.7,0.6,1.4,0.6c0.6,0,1.2,0,1.8-0.1v1.8
		c-0.3,0-0.6,0-0.9,0c-0.3,0-0.6,0-0.9,0c-1.4,0-2.4-0.3-2.8-0.8c-0.6-0.5-0.8-1.5-0.8-2.9V37.1h-2.9v-1.8h2.9v-3.1l2.1-1.9v5.1
		L73.6,35.3L73.6,35.3z"/>
	<rect x="75" y="35.3" class="st2" width="2.1" height="16.9"/>
	<path class="st2" d="M83,37v15.1H81V37h-2.8v-1.8H81v-1.6c0-0.7,0.1-1.4,0.2-2c0.1-0.6,0.3-1.2,0.6-1.6c0.3-0.4,0.7-0.8,1.3-1
		c0.5-0.2,1.2-0.4,2.1-0.4c0.3,0,0.6,0,0.9,0c0.3,0,0.6,0.1,0.9,0.1v1.8c-0.3,0-0.6-0.1-0.8-0.1c-0.2,0-0.5,0-0.7,0
		c-0.6,0-1,0.1-1.3,0.3c-0.3,0.2-0.5,0.4-0.7,0.7c-0.1,0.3-0.2,0.6-0.2,1s0,0.8,0,1.3v1.5h3.3V37H83z"/>
	<rect x="87.1" y="35.3" class="st2" width="2.1" height="16.9"/>
	<path class="st2" d="M101.8,37.6c-0.8-0.7-1.9-1.1-3.2-1.1c-1,0-1.9,0.2-2.5,0.6c-0.8,0.4-1.4,1-1.9,1.7c-0.5,0.7-0.9,1.5-1.1,2.3
		c-0.3,0.9-0.4,1.8-0.4,2.6s0.1,1.8,0.4,2.6c0.3,0.9,0.6,1.7,1.1,2.3c0.5,0.7,1.1,1.2,1.9,1.7c0.8,0.4,1.6,0.6,2.5,0.6
		c0.6,0,1.3-0.1,1.8-0.4c0.6-0.2,1.1-0.6,1.5-1c0.4-0.4,0.8-0.9,1.1-1.5c0.3-0.6,0.5-1.3,0.5-2h2.1c-0.3,2.1-1.1,3.6-2.3,4.8
		c-1.2,1.2-2.7,1.7-4.7,1.7c-1.3,0-2.5-0.2-3.4-0.7c-1-0.5-1.9-1.1-2.5-1.9c-0.7-0.8-1.2-1.8-1.6-2.8c-0.4-1.1-0.5-2.3-0.5-3.4
		s0.2-2.4,0.5-3.4c0.4-1.1,0.9-2.1,1.6-2.8c0.7-0.8,1.5-1.5,2.5-2c1-0.5,2.2-0.7,3.4-0.7c1.8,0,3.3,0.5,4.6,1.5c1.3,1,2,2.5,2.3,4.3
		h-2.1C103.1,39.3,102.6,38.4,101.8,37.6"/>
	<polygon class="st2" points="78,29.6 77,33 75,33 76,29.6 	"/>
	<polygon class="st2" points="90.3,29.6 89.2,33 87.1,33 88.2,29.6 	"/>
	<polygon class="st2" points="34.4,29.6 33.4,33 31.3,33 32.4,29.6 	"/>
</g>
</svg>
