<?xml version="1.0" encoding="utf-8"?>
<!-- Generator: Adobe Illustrator 22.0.1, SVG Export Plug-In . SVG Version: 6.00 Build 0)  -->
<svg version="1.1" id="Layer_1" xmlns="http://www.w3.org/2000/svg" xmlns:xlink="http://www.w3.org/1999/xlink" x="0px" y="0px"
	 viewBox="0 0 181.9 23.4" style="enable-background:new 0 0 181.9 23.4;" xml:space="preserve">
<style type="text/css">
	.st0{fill:#EE3134;}
	.st1{fill:#58595B;}
	.st2{fill:none;}
</style>
<g>
	<path class="st0" d="M0.5,7.2h2.5V4.5l3.3-1.7v4.4h2.9v2.4H6.2v7.9c0,0.3,0,0.6,0,0.9c0,0.2,0.1,0.5,0.2,0.6
		c0.1,0.2,0.3,0.3,0.5,0.4c0.2,0.1,0.5,0.1,0.9,0.1c0.2,0,0.5,0,0.7,0c0.2,0,0.5,0,0.7-0.1V22c-0.4,0-0.7,0.1-1.1,0.1
		c-0.3,0-0.7,0.1-1.1,0.1c-0.9,0-1.5-0.1-2.1-0.2c-0.5-0.2-0.9-0.4-1.2-0.7c-0.3-0.3-0.5-0.7-0.6-1.2c-0.1-0.5-0.2-1-0.2-1.6V9.7
		H0.5V7.2z"/>
	<path class="st0" d="M10,1.6l3.3-1.4v9h0.1c0.4-0.7,1-1.2,1.8-1.7c0.8-0.4,1.7-0.7,2.6-0.7c1.6,0,2.9,0.4,3.8,1.3
		c0.9,0.8,1.4,2.1,1.4,3.8V22h-3.3v-9.3c0-1.2-0.3-2-0.7-2.5c-0.5-0.5-1.2-0.8-2.1-0.8c-0.6,0-1,0.1-1.5,0.3
		c-0.4,0.2-0.8,0.5-1.1,0.8c-0.3,0.4-0.5,0.8-0.7,1.2c-0.2,0.5-0.3,1-0.3,1.5V22H10V1.6z"/>
	<path class="st0" d="M35.1,13.3c0-0.5-0.1-1-0.3-1.5c-0.2-0.5-0.4-0.9-0.7-1.2c-0.3-0.4-0.7-0.6-1.1-0.9c-0.4-0.2-0.9-0.3-1.5-0.3
		c-0.6,0-1.1,0.1-1.6,0.3c-0.5,0.2-0.9,0.5-1.2,0.8c-0.3,0.4-0.6,0.8-0.8,1.2c-0.2,0.5-0.3,1-0.3,1.5H35.1z M27.5,15.5
		c0,0.6,0.1,1.1,0.2,1.7c0.2,0.5,0.4,1,0.7,1.4c0.3,0.4,0.7,0.7,1.2,1c0.5,0.2,1.1,0.4,1.8,0.4c1,0,1.7-0.2,2.3-0.6
		c0.6-0.4,1-1,1.3-1.8h3.1c-0.2,0.8-0.5,1.5-0.9,2.1c-0.4,0.6-0.9,1.2-1.5,1.6c-0.6,0.4-1.3,0.8-2,1c-0.7,0.2-1.5,0.3-2.3,0.3
		c-1.2,0-2.2-0.2-3.1-0.6c-0.9-0.4-1.7-0.9-2.3-1.6c-0.6-0.7-1.1-1.5-1.4-2.5c-0.3-1-0.5-2-0.5-3.1c0-1,0.2-2,0.5-3
		c0.3-0.9,0.8-1.8,1.4-2.5c0.6-0.7,1.4-1.3,2.2-1.7c0.9-0.4,1.9-0.6,3-0.6c1.2,0,2.2,0.2,3.1,0.7c0.9,0.5,1.7,1.1,2.3,1.9
		c0.6,0.8,1.1,1.7,1.3,2.8c0.3,1,0.3,2.1,0.2,3.2H27.5z"/>
	<path class="st0" d="M39.4,7.2h3.1v2.9h0.1c0.1-0.4,0.3-0.8,0.6-1.2c0.3-0.4,0.6-0.7,1-1c0.4-0.3,0.8-0.6,1.3-0.8
		c0.5-0.2,1-0.3,1.5-0.3c0.4,0,0.6,0,0.8,0s0.3,0,0.4,0.1v3.1c-0.2,0-0.5-0.1-0.7-0.1c-0.2,0-0.5,0-0.7,0c-0.6,0-1.1,0.1-1.6,0.3
		c-0.5,0.2-0.9,0.5-1.3,1c-0.4,0.4-0.6,1-0.9,1.6c-0.2,0.6-0.3,1.4-0.3,2.2v7h-3.3V7.2z"/>
	<path class="st0" d="M49.3,7.2h3.1v2.1h0.1c0.2-0.4,0.5-0.7,0.8-1c0.3-0.3,0.6-0.6,1-0.8C54.6,7.3,55,7.1,55.5,7
		c0.5-0.1,1-0.2,1.6-0.2c0.9,0,1.7,0.2,2.5,0.6c0.8,0.4,1.3,1,1.6,1.9c0.6-0.8,1.2-1.4,1.9-1.8c0.7-0.4,1.6-0.7,2.7-0.7
		c1.6,0,2.8,0.4,3.6,1.1c0.9,0.8,1.3,2,1.3,3.8V22h-3.3v-8.6c0-0.6,0-1.1-0.1-1.6c0-0.5-0.1-0.9-0.3-1.3c-0.2-0.4-0.5-0.6-0.8-0.8
		c-0.4-0.2-0.9-0.3-1.5-0.3c-1.1,0-1.9,0.3-2.4,1c-0.5,0.7-0.7,1.7-0.7,2.9V22h-3.3v-9.5c0-1-0.2-1.8-0.6-2.3
		c-0.4-0.5-1.1-0.8-2-0.8c-0.4,0-0.8,0.1-1.2,0.3c-0.4,0.2-0.7,0.4-1,0.7c-0.3,0.3-0.5,0.7-0.7,1.2c-0.2,0.5-0.3,1-0.3,1.6V22h-3.3
		V7.2z"/>
	<path class="st0" d="M79.5,19.8c0.7,0,1.4-0.2,1.9-0.5c0.5-0.3,1-0.7,1.3-1.2c0.3-0.5,0.6-1.1,0.8-1.7c0.2-0.6,0.2-1.3,0.2-1.9
		c0-0.6-0.1-1.3-0.2-1.9c-0.2-0.6-0.4-1.2-0.8-1.7c-0.3-0.5-0.8-0.9-1.3-1.2c-0.5-0.3-1.2-0.5-1.9-0.5c-0.7,0-1.4,0.2-1.9,0.5
		c-0.5,0.3-1,0.7-1.3,1.2c-0.3,0.5-0.6,1-0.8,1.7c-0.2,0.6-0.2,1.3-0.2,1.9c0,0.6,0.1,1.3,0.2,1.9c0.2,0.6,0.4,1.2,0.8,1.7
		c0.3,0.5,0.8,0.9,1.3,1.2C78.1,19.7,78.8,19.8,79.5,19.8 M79.5,22.4c-1.2,0-2.2-0.2-3.2-0.6c-0.9-0.4-1.7-0.9-2.3-1.6
		c-0.6-0.7-1.1-1.5-1.5-2.5c-0.3-1-0.5-2-0.5-3.1c0-1.1,0.2-2.2,0.5-3.1c0.3-1,0.8-1.8,1.5-2.5c0.6-0.7,1.4-1.2,2.3-1.6
		c0.9-0.4,2-0.6,3.2-0.6c1.2,0,2.2,0.2,3.2,0.6C83.6,7.8,84.4,8.4,85,9c0.6,0.7,1.1,1.5,1.5,2.5c0.3,1,0.5,2,0.5,3.1
		c0,1.1-0.2,2.2-0.5,3.1c-0.3,1-0.8,1.8-1.5,2.5c-0.6,0.7-1.4,1.2-2.3,1.6C81.7,22.2,80.7,22.4,79.5,22.4"/>
	<path class="st1" d="M98.7,10.1c-0.2-0.4-0.5-0.7-0.8-1c-0.4-0.3-0.8-0.5-1.2-0.6c-0.5-0.1-0.9-0.2-1.5-0.2c-0.4,0-0.8,0-1.2,0.1
		c-0.4,0.1-0.8,0.2-1.1,0.4c-0.3,0.2-0.6,0.5-0.8,0.8c-0.2,0.3-0.3,0.7-0.3,1.2c0,0.4,0.1,0.7,0.3,1c0.2,0.3,0.5,0.5,0.8,0.7
		c0.3,0.2,0.6,0.3,1,0.5c0.4,0.1,0.7,0.2,1,0.3l2.4,0.5c0.5,0.1,1,0.2,1.5,0.4c0.5,0.2,1,0.5,1.3,0.8c0.4,0.3,0.7,0.7,1,1.2
		c0.2,0.5,0.4,1,0.4,1.7c0,0.8-0.2,1.5-0.5,2c-0.4,0.6-0.8,1-1.4,1.4c-0.6,0.4-1.2,0.6-1.9,0.8c-0.7,0.2-1.4,0.2-2.1,0.2
		c-1.7,0-3.1-0.4-4.2-1.2c-1.1-0.8-1.7-2.1-1.8-3.9h1.8c0.1,1.2,0.5,2.1,1.3,2.8c0.8,0.6,1.8,0.9,3,0.9c0.4,0,0.9,0,1.4-0.1
		c0.5-0.1,0.9-0.3,1.3-0.5c0.4-0.2,0.7-0.5,1-0.9c0.3-0.4,0.4-0.8,0.4-1.3c0-0.4-0.1-0.8-0.3-1.1c-0.2-0.3-0.4-0.5-0.7-0.7
		c-0.3-0.2-0.7-0.4-1-0.5c-0.4-0.1-0.8-0.2-1.2-0.3L94,14.9c-0.6-0.2-1.1-0.3-1.6-0.5c-0.5-0.2-0.9-0.4-1.3-0.7
		c-0.4-0.3-0.7-0.7-0.9-1.1c-0.2-0.4-0.3-1-0.3-1.6c0-0.7,0.2-1.4,0.5-1.9c0.3-0.5,0.8-1,1.3-1.3c0.5-0.3,1.1-0.6,1.8-0.7
		c0.7-0.2,1.3-0.2,2-0.2c0.7,0,1.4,0.1,2.1,0.3c0.6,0.2,1.2,0.5,1.7,0.9c0.5,0.4,0.9,0.9,1.2,1.5c0.3,0.6,0.4,1.3,0.5,2.1H99
		C99,11,98.9,10.5,98.7,10.1"/>
	<path class="st1" d="M111.5,9.3c-0.7-0.6-1.6-0.9-2.8-0.9c-0.9,0-1.6,0.2-2.3,0.5c-0.6,0.4-1.2,0.8-1.6,1.4c-0.4,0.6-0.8,1.3-1,2
		c-0.2,0.8-0.3,1.5-0.3,2.3c0,0.8,0.1,1.5,0.3,2.3c0.2,0.8,0.5,1.4,1,2c0.4,0.6,1,1.1,1.6,1.4c0.6,0.4,1.4,0.5,2.3,0.5
		c0.6,0,1.1-0.1,1.6-0.3c0.5-0.2,0.9-0.5,1.3-0.9c0.4-0.4,0.7-0.8,0.9-1.3c0.2-0.5,0.4-1.1,0.5-1.7h1.8c-0.2,1.8-0.9,3.2-2,4.2
		c-1.1,1-2.4,1.5-4.1,1.5c-1.1,0-2.1-0.2-3-0.6c-0.9-0.4-1.6-1-2.2-1.7c-0.6-0.7-1-1.5-1.3-2.5c-0.3-0.9-0.5-1.9-0.5-3
		c0-1.1,0.2-2.1,0.5-3c0.3-0.9,0.8-1.8,1.3-2.5c0.6-0.7,1.3-1.3,2.2-1.7c0.9-0.4,1.9-0.6,3-0.6c1.6,0,2.9,0.4,4,1.3
		c1.1,0.8,1.7,2.1,2,3.8h-1.8C112.6,10.8,112.2,9.9,111.5,9.3"/>
	<rect x="-13.4" y="-13.6" class="st2" width="208.1" height="49.6"/>
	<rect x="115.9" y="7.3" class="st1" width="1.8" height="14.7"/>
	<path class="st1" d="M130,11.6c-0.2-0.6-0.5-1.2-0.9-1.7c-0.4-0.5-0.9-0.9-1.5-1.2c-0.6-0.3-1.2-0.4-1.9-0.4c-0.7,0-1.4,0.1-2,0.4
		c-0.6,0.3-1.1,0.7-1.5,1.2c-0.4,0.5-0.7,1-1,1.7c-0.2,0.6-0.4,1.3-0.5,2h9.5C130.3,12.9,130.2,12.3,130,11.6 M121.1,17.1
		c0.2,0.7,0.5,1.3,0.9,1.9c0.4,0.6,0.9,1,1.5,1.4c0.6,0.4,1.3,0.5,2.2,0.5c1.3,0,2.3-0.3,3.1-1c0.7-0.7,1.3-1.6,1.5-2.7h1.8
		c-0.4,1.7-1.1,3-2.1,3.9c-1,0.9-2.5,1.4-4.3,1.4c-1.2,0-2.2-0.2-3-0.6c-0.8-0.4-1.5-1-2.1-1.7c-0.5-0.7-0.9-1.5-1.2-2.5
		c-0.3-0.9-0.4-1.9-0.4-3c0-1,0.1-1.9,0.4-2.9c0.3-0.9,0.7-1.8,1.2-2.5c0.5-0.7,1.2-1.3,2.1-1.8c0.8-0.4,1.9-0.7,3-0.7
		c1.2,0,2.2,0.2,3,0.7c0.8,0.5,1.5,1.1,2,1.9c0.5,0.8,0.9,1.7,1.1,2.7c0.2,1,0.3,2,0.3,3h-11.3C120.8,15.8,120.9,16.4,121.1,17.1"/>
	<path class="st1" d="M134.9,7.3v2.5h0.1c0.3-0.9,1-1.6,1.8-2.2c0.9-0.5,1.8-0.8,2.9-0.8c1,0,1.9,0.1,2.6,0.4
		c0.7,0.3,1.3,0.6,1.7,1.1c0.4,0.5,0.7,1.1,0.9,1.8c0.2,0.7,0.3,1.5,0.3,2.4V22h-1.8v-9.2c0-0.6-0.1-1.2-0.2-1.8
		c-0.1-0.5-0.3-1-0.6-1.4c-0.3-0.4-0.7-0.7-1.2-0.9c-0.5-0.2-1.1-0.3-1.8-0.3s-1.4,0.1-1.9,0.4c-0.6,0.3-1,0.6-1.4,1.1
		c-0.4,0.4-0.7,1-0.9,1.6c-0.2,0.6-0.3,1.3-0.4,2V22h-1.8V7.3H134.9z"/>
	<path class="st1" d="M152.9,7.3v1.5h-3v9.9c0,0.6,0.1,1.1,0.2,1.4c0.2,0.3,0.6,0.5,1.2,0.6c0.5,0,1,0,1.5-0.1v1.5
		c-0.3,0-0.5,0-0.8,0c-0.3,0-0.5,0-0.8,0c-1.2,0-2-0.2-2.5-0.7c-0.5-0.5-0.7-1.3-0.7-2.6V8.8h-2.6V7.3h2.6V4.5l1.8-1.7v4.4H152.9z"
		/>
	<rect x="-13.4" y="-13.6" class="st2" width="208.1" height="49.6"/>
	<rect x="154.1" y="7.3" class="st1" width="1.8" height="14.7"/>
	<path class="st1" d="M161.1,8.8V22h-1.8V8.8h-2.5V7.3h2.5V5.9c0-0.6,0-1.2,0.1-1.7c0.1-0.5,0.3-1,0.5-1.4c0.3-0.4,0.6-0.7,1.1-0.9
		c0.5-0.2,1.1-0.3,1.8-0.3c0.3,0,0.5,0,0.7,0c0.2,0,0.5,0,0.8,0.1v1.5c-0.2,0-0.5-0.1-0.7-0.1c-0.2,0-0.4,0-0.6,0
		c-0.5,0-0.9,0.1-1.1,0.2c-0.3,0.2-0.5,0.4-0.6,0.6c-0.1,0.3-0.2,0.6-0.2,0.9c0,0.3,0,0.7,0,1.1v1.3h2.9v1.5H161.1z"/>
	<rect x="-13.4" y="-13.6" class="st2" width="208.1" height="49.6"/>
	<rect x="164.7" y="7.3" class="st1" width="1.8" height="14.7"/>
	<path class="st1" d="M177.6,9.3c-0.7-0.6-1.6-0.9-2.8-0.9c-0.9,0-1.6,0.2-2.3,0.5c-0.6,0.4-1.2,0.8-1.6,1.4c-0.4,0.6-0.8,1.3-1,2
		c-0.2,0.8-0.3,1.5-0.3,2.3c0,0.8,0.1,1.5,0.3,2.3s0.5,1.4,1,2c0.4,0.6,1,1.1,1.6,1.4c0.6,0.4,1.4,0.5,2.3,0.5
		c0.6,0,1.1-0.1,1.6-0.3c0.5-0.2,0.9-0.5,1.3-0.9c0.4-0.4,0.7-0.8,0.9-1.3c0.2-0.5,0.4-1.1,0.5-1.7h1.8c-0.2,1.8-0.9,3.2-2,4.2
		c-1.1,1-2.4,1.5-4.1,1.5c-1.1,0-2.1-0.2-3-0.6c-0.9-0.4-1.6-1-2.2-1.7c-0.6-0.7-1-1.5-1.3-2.5c-0.3-0.9-0.5-1.9-0.5-3
		c0-1.1,0.2-2.1,0.5-3c0.3-0.9,0.8-1.8,1.3-2.5c0.6-0.7,1.3-1.3,2.2-1.7c0.9-0.4,1.9-0.6,3-0.6c1.6,0,2.9,0.4,4,1.3
		c1.1,0.8,1.7,2.1,2,3.8H179C178.7,10.8,178.3,9.9,177.6,9.3"/>
	<rect x="-13.4" y="-13.6" class="st2" width="208.1" height="49.6"/>
	<polygon class="st1" points="156.8,2.3 155.9,5.2 154.1,5.2 155,2.3 	"/>
	<polygon class="st1" points="167.4,2.3 166.5,5.2 164.7,5.2 165.6,2.3 	"/>
	<polygon class="st1" points="118.6,2.3 117.7,5.2 115.9,5.2 116.8,2.3 	"/>
</g>
</svg>
